<svg 
 xmlns="http://www.w3.org/2000/svg"
 xmlns:xlink="http://www.w3.org/1999/xlink"
 width="1503px" height="386px">
<path fill-rule="evenodd"  fill="rgb(30, 0, 255)"
 d="M792.1000,0.000 C804.828,0.207 815.155,3.886 820.000,10.1000 C830.444,26.336 824.1000,135.552 825.000,165.1000 C825.000,188.188 828.253,219.322 818.000,231.1000 C806.723,245.944 779.259,239.687 771.1000,226.1000 C757.805,202.191 775.674,109.872 727.000,125.1000 C706.378,132.833 710.991,155.006 707.000,178.1000 C704.000,207.331 700.1000,235.669 697.1000,263.1000 C690.041,311.914 698.670,354.038 634.000,339.000 C623.524,323.981 618.572,293.653 590.1000,298.1000 C581.326,300.876 575.404,302.369 570.1000,309.000 C563.880,319.721 567.864,332.852 556.000,339.000 C543.044,343.719 527.492,339.500 518.1000,333.1000 C505.563,292.168 514.006,209.952 513.1000,158.000 C513.997,127.811 511.219,103.454 536.000,98.000 C555.205,93.773 564.134,108.133 572.000,115.1000 C595.038,139.043 630.723,161.391 639.000,198.000 C643.614,218.410 636.397,260.657 652.000,269.1000 C657.337,275.389 666.063,275.012 673.1000,272.1000 C702.026,244.639 690.762,148.508 701.000,100.000 C708.337,65.238 763.813,14.491 792.1000,0.000 ZM1007.1000,19.000 C1050.600,19.613 1042.002,61.099 1041.1000,103.000 C1041.998,149.687 1044.457,190.785 1051.000,231.1000 C1052.667,251.665 1054.334,271.335 1056.000,291.000 C1059.184,305.129 1064.163,319.446 1077.1000,322.1000 C1113.741,332.180 1150.450,312.813 1162.000,345.1000 C1164.458,353.064 1164.714,364.503 1160.1000,370.1000 C1151.811,387.073 1054.614,392.295 1043.000,374.1000 C1029.779,355.312 1038.242,314.899 1025.1000,295.1000 C976.986,281.300 995.358,324.840 973.1000,337.1000 C947.317,355.016 917.762,324.323 924.000,295.000 C930.373,265.042 964.563,265.154 975.000,238.1000 C980.281,225.766 977.995,203.608 978.000,185.1000 C979.333,148.004 980.667,109.996 981.1000,71.1000 C984.857,53.933 980.433,40.014 989.000,29.000 C993.346,23.414 1001.200,22.287 1007.1000,19.000 ZM471.000,31.1000 C483.845,32.527 493.790,36.951 499.000,44.1000 C507.138,57.572 504.001,154.501 503.1000,178.1000 C503.999,196.507 507.994,225.777 500.1000,238.000 C490.296,256.704 456.769,256.543 450.1000,279.1000 C443.067,312.255 490.740,315.843 500.1000,332.1000 C511.996,351.388 496.691,371.900 481.1000,374.1000 C459.469,379.755 446.707,356.709 437.000,346.1000 C407.425,317.419 386.993,312.065 386.1000,251.000 C387.333,239.001 387.667,226.999 388.000,215.000 C393.267,198.181 411.325,197.378 424.000,188.000 C440.575,175.736 444.719,149.843 460.1000,138.000 C478.006,125.629 510.046,131.292 487.1000,94.1000 C477.668,92.334 467.332,89.666 456.1000,87.000 C427.974,68.951 448.982,41.008 471.000,31.1000 ZM212.1000,54.1000 C265.995,54.1000 319.005,54.1000 371.1000,54.1000 C399.077,54.998 423.896,52.030 430.1000,71.1000 C438.352,92.667 433.730,158.996 422.000,167.000 C372.844,200.542 371.046,86.153 324.1000,124.1000 C316.714,131.991 316.999,145.492 316.1000,161.000 C317.001,179.085 313.227,208.492 321.000,219.1000 C332.152,236.511 363.120,237.499 370.000,258.000 C382.789,296.110 340.317,294.998 308.1000,295.000 C296.668,294.667 284.332,294.333 271.1000,293.1000 C248.745,286.939 253.887,260.375 261.1000,242.000 C282.622,195.296 323.175,148.634 306.1000,73.000 C299.224,67.139 291.021,64.938 278.1000,67.1000 C266.262,78.718 273.440,105.811 253.1000,110.000 C196.890,122.305 170.397,80.797 212.1000,54.1000 ZM1110.000,63.000 C1141.635,62.757 1187.487,64.955 1170.1000,103.000 C1162.068,123.611 1125.719,123.166 1120.000,145.1000 C1114.698,167.169 1118.866,229.167 1129.000,235.1000 C1135.429,240.335 1146.317,240.114 1157.000,239.1000 C1218.397,239.342 1165.969,122.527 1216.000,110.000 C1222.902,108.272 1230.842,109.882 1235.1000,113.000 C1254.612,124.252 1249.007,162.698 1248.1000,191.1000 C1248.997,205.557 1249.269,218.397 1245.000,228.000 C1237.889,243.998 1180.177,301.297 1162.000,305.000 C1147.307,307.993 1133.140,301.569 1126.000,295.1000 C1116.236,288.385 1059.187,174.848 1056.000,158.000 C1052.818,141.176 1054.219,84.367 1059.1000,74.1000 C1070.115,58.612 1090.170,70.350 1110.000,63.000 ZM854.000,83.000 C913.076,82.492 881.660,146.866 904.000,181.000 C920.828,185.528 944.492,183.996 955.000,195.000 C955.959,240.443 918.949,289.808 901.1000,322.1000 C894.300,338.080 889.371,358.702 872.1000,365.000 C865.235,367.987 801.574,368.895 790.1000,365.000 C775.577,359.319 729.450,310.266 719.000,295.1000 C703.033,274.202 703.068,182.926 746.1000,194.000 C779.680,202.238 764.966,269.224 782.000,293.1000 C790.364,306.165 813.294,304.895 821.1000,293.1000 C846.581,263.239 837.007,210.576 836.1000,158.1000 C836.995,122.650 830.730,98.133 854.000,83.000 ZM1347.000,96.000 C1369.705,97.154 1426.849,155.961 1437.000,172.1000 C1442.719,182.599 1439.459,198.030 1434.000,205.000 C1401.907,245.977 1375.531,168.743 1360.000,161.1000 C1341.058,153.776 1317.318,174.092 1326.000,195.1000 C1342.493,237.620 1491.018,193.953 1502.000,242.000 C1507.209,264.790 1480.885,280.116 1471.000,289.1000 C1457.147,303.852 1435.928,336.878 1413.000,339.000 C1413.000,339.000 1389.836,337.000 1385.1000,336.1000 C1357.336,336.1000 1328.664,336.1000 1300.000,336.1000 C1278.586,337.002 1218.917,342.157 1207.000,335.000 C1197.723,329.429 1188.514,312.849 1195.000,298.000 C1201.196,283.814 1258.093,228.371 1274.000,225.000 C1305.401,218.346 1351.745,307.350 1374.000,259.1000 C1398.446,207.988 1292.986,225.341 1271.000,208.1000 C1262.073,202.365 1256.415,184.002 1264.000,171.1000 C1276.473,152.265 1325.458,107.427 1347.000,96.000 ZM88.1000,113.000 C132.681,112.589 254.353,96.728 243.1000,147.000 C234.809,191.628 138.889,154.282 129.000,197.000 C118.083,244.157 211.742,225.579 234.1000,242.1000 C242.762,248.814 248.686,265.619 241.1000,276.1000 C234.167,290.332 175.075,350.739 160.1000,353.1000 C122.334,362.958 124.787,306.408 98.000,299.1000 C58.163,290.470 67.629,359.234 28.1000,353.1000 C19.599,352.726 11.007,347.767 6.1000,340.1000 C-2.177,325.503 -0.812,262.185 7.1000,248.000 C17.594,232.555 39.166,237.468 54.000,244.000 C76.505,253.911 158.363,308.818 176.1000,278.000 C184.070,266.309 178.201,248.587 169.1000,242.1000 C148.149,228.114 104.979,239.192 80.000,228.000 C75.406,225.942 68.896,219.762 67.000,215.000 C62.675,204.135 62.489,139.830 67.000,128.1000 C70.940,119.541 79.869,117.542 88.1000,113.000 Z"/>
</svg>